<svg width="575.99375px" height="138.8px" xmlns="http://www.w3.org/2000/svg" viewBox="-37.99687499999999 5.599999999999994 575.99375 138.8" style="background: rgba(0, 0, 0, 0);" preserveAspectRatio="xMidYMid"><defs><filter id="editing-hole" x="-100%" y="-100%" width="300%" height="300%"><feFlood flood-color="#000000" result="black"></feFlood><feMorphology operator="dilate" radius="2" in="SourceGraphic" result="erode"></feMorphology><feGaussianBlur in="erode" stdDeviation="4" result="blur"></feGaussianBlur><feOffset in="blur" dx="2" dy="2" result="offset"></feOffset><feComposite operator="atop" in="offset" in2="black" result="merge"></feComposite><feComposite operator="in" in="merge" in2="SourceGraphic" result="inner-shadow"></feComposite></filter></defs><g filter="url(#editing-hole)"><g transform="translate(45.904993295669556, 100.79500198364258)"><path d="M21.12 0.90L21.12 0.90Q14.98 0.90 9.50-0.16L9.50-0.16L9.50-0.16Q4.03-1.22 1.09-2.56L1.09-2.56L1.09-15.23L15.17-15.23L15.17-15.23Q15.17-13.25 16.06-12.35L16.06-12.35L16.06-12.35Q16.96-11.46 19.33-11.46L19.33-11.46L19.33-11.46Q21.31-11.46 22.18-12.06L22.18-12.06L22.18-12.06Q23.04-12.67 23.04-13.89L23.04-13.89L23.04-13.89Q23.04-14.91 22.21-15.65L22.21-15.65L22.21-15.65Q21.38-16.38 19.33-17.15L19.33-17.15L13.82-19.07L13.82-19.07Q6.72-21.76 3.62-25.41L3.62-25.41L3.62-25.41Q0.51-29.06 0.51-35.26L0.51-35.26L0.51-35.26Q0.51-42.82 5.47-46.75L5.47-46.75L5.47-46.75Q10.43-50.69 22.02-50.69L22.02-50.69L22.02-50.69Q27.58-50.69 32.48-49.57L32.48-49.57L32.48-49.57Q37.38-48.45 40.38-46.59L40.38-46.59L40.38-35.14L27.58-35.14L27.58-35.14Q27.58-38.34 23.62-38.34L23.62-38.34L23.62-38.34Q21.70-38.34 20.90-37.86L20.90-37.86L20.90-37.86Q20.10-37.38 20.10-36.16L20.10-36.16L20.10-36.16Q20.10-35.07 21.02-34.43L21.02-34.43L21.02-34.43Q21.95-33.79 24.06-33.09L24.06-33.09L29.63-31.17L29.63-31.17Q36.42-28.86 39.52-25.18L39.52-25.18L39.52-25.18Q42.62-21.50 42.62-15.55L42.62-15.55L42.62-15.55Q42.62-7.42 37.15-3.26L37.15-3.26L37.15-3.26Q31.68 0.90 21.12 0.90L21.12 0.90ZM95.62-49.79L95.62-39.30L92.42-39.30L92.42-10.50L95.62-10.50L95.62 0L71.42 0L71.42-10.50L74.50-10.50L74.50-21.06L65.54-21.06L65.54-10.50L68.61-10.50L68.61 0L44.42 0L44.42-10.50L47.62-10.50L47.62-39.30L44.42-39.30L44.42-49.79L68.61-49.79L68.61-39.30L65.54-39.30L65.54-29.57L74.50-29.57L74.50-39.30L71.42-39.30L71.42-49.79L95.62-49.79ZM122.24 0.90L122.24 0.90Q110.53 0.90 104.16-5.25L104.16-5.25L104.16-5.25Q97.79-11.39 97.79-24.90L97.79-24.90L97.79-24.90Q97.79-38.40 104.16-44.54L104.16-44.54L104.16-44.54Q110.53-50.69 122.24-50.69L122.24-50.69L122.24-50.69Q133.95-50.69 140.32-44.54L140.32-44.54L140.32-44.54Q146.69-38.40 146.69-24.90L146.69-24.90L146.69-24.90Q146.69-11.39 140.32-5.25L140.32-5.25L140.32-5.25Q133.95 0.90 122.24 0.90L122.24 0.90ZM122.24-10.50L122.24-10.50Q124.42-10.50 125.50-11.65L125.50-11.65L125.50-11.65Q126.59-12.80 126.59-15.23L126.59-15.23L126.59-34.56L126.59-34.56Q126.59-36.99 125.50-38.14L125.50-38.14L125.50-38.14Q124.42-39.30 122.24-39.30L122.24-39.30L122.24-39.30Q120.06-39.30 118.98-38.14L118.98-38.14L118.98-38.14Q117.89-36.99 117.89-34.56L117.89-34.56L117.89-15.23L117.89-15.23Q117.89-12.74 118.98-11.62L118.98-11.62L118.98-11.62Q120.06-10.50 122.24-10.50L122.24-10.50ZM202.30-39.30L202.30-49.79L222.78-49.79L222.78-39.30L220.22-39.30L210.69 0L191.55 0L185.73-27.65L185.09-27.65L178.94 0L159.81 0L149.63-39.30L147.07-39.30L147.07-49.79L170.75-49.79L170.75-39.30L168.32-39.30L170.82-22.98L171.46-22.98L177.54-49.79L195.97-49.79L201.60-22.98L202.24-22.98L204.74-39.30L202.30-39.30ZM248.38 0.90L248.38 0.90Q236.29 0.90 229.73-5.25L229.73-5.25L229.73-5.25Q223.17-11.39 223.17-24.90L223.17-24.90L223.17-24.90Q223.17-50.69 248.26-50.69L248.26-50.69L248.26-50.69Q254.34-50.69 259.55-49.22L259.55-49.22L259.55-49.22Q264.77-47.74 267.33-45.95L267.33-45.95L267.33-29.95L251.97-29.95L251.97-34.56L251.97-34.56Q251.97-36.99 250.88-38.14L250.88-38.14L250.88-38.14Q249.79-39.30 247.62-39.30L247.62-39.30L247.62-39.30Q245.44-39.30 244.35-38.14L244.35-38.14L244.35-38.14Q243.26-36.99 243.26-34.56L243.26-34.56L243.26-15.23L243.26-15.23Q243.26-12.80 244.35-11.65L244.35-11.65L244.35-11.65Q245.44-10.50 247.62-10.50L247.62-10.50L247.62-10.50Q249.79-10.50 250.88-11.65L250.88-11.65L250.88-11.65Q251.97-12.80 251.97-15.23L251.97-15.23L251.97-20.42L267.33-20.42L267.33-3.84L267.33-3.84Q264.70-2.05 259.55-0.58L259.55-0.58L259.55-0.58Q254.40 0.90 248.38 0.90L248.38 0.90ZM305.92-49.79L316.74-10.50L319.30-10.50L319.30 0L294.21 0L294.21-10.50L298.05-10.50L297.02-15.62L288.32-15.62L287.30-10.50L291.14-10.50L291.14 0L269.25 0L269.25-10.50L271.81-10.50L282.62-49.79L305.92-49.79ZM292.35-35.14L289.73-22.40L295.62-22.40L292.99-35.14L292.35-35.14ZM341.18 0.90L341.18 0.90Q335.04 0.90 329.57-0.16L329.57-0.16L329.57-0.16Q324.10-1.22 321.15-2.56L321.15-2.56L321.15-15.23L335.23-15.23L335.23-15.23Q335.23-13.25 336.13-12.35L336.13-12.35L336.13-12.35Q337.02-11.46 339.39-11.46L339.39-11.46L339.39-11.46Q341.38-11.46 342.24-12.06L342.24-12.06L342.24-12.06Q343.10-12.67 343.10-13.89L343.10-13.89L343.10-13.89Q343.10-14.91 342.27-15.65L342.27-15.65L342.27-15.65Q341.44-16.38 339.39-17.15L339.39-17.15L333.89-19.07L333.89-19.07Q326.78-21.76 323.68-25.41L323.68-25.41L323.68-25.41Q320.58-29.06 320.58-35.26L320.58-35.26L320.58-35.26Q320.58-42.82 325.54-46.75L325.54-46.75L325.54-46.75Q330.50-50.69 342.08-50.69L342.08-50.69L342.08-50.69Q347.65-50.69 352.54-49.57L352.54-49.57L352.54-49.57Q357.44-48.45 360.45-46.59L360.45-46.59L360.45-35.14L347.65-35.14L347.65-35.14Q347.65-38.34 343.68-38.34L343.68-38.34L343.68-38.34Q341.76-38.34 340.96-37.86L340.96-37.86L340.96-37.86Q340.16-37.38 340.16-36.16L340.16-36.16L340.16-36.16Q340.16-35.07 341.09-34.43L341.09-34.43L341.09-34.43Q342.02-33.79 344.13-33.09L344.13-33.09L349.70-31.17L349.70-31.17Q356.48-28.86 359.58-25.18L359.58-25.18L359.58-25.18Q362.69-21.50 362.69-15.55L362.69-15.55L362.69-15.55Q362.69-7.42 357.22-3.26L357.22-3.26L357.22-3.26Q351.74 0.90 341.18 0.90L341.18 0.90ZM407.68 0L364.48 0L364.48-10.50L367.68-10.50L367.68-39.30L364.48-39.30L364.48-49.79L407.68-49.79L407.68-30.46L393.34-30.46L393.34-39.30L385.60-39.30L385.60-29.18L391.23-29.18L391.23-21.89L385.60-21.89L385.60-10.50L393.34-10.50L393.34-20.61L407.68-20.61L407.68 0Z" fill="#ededed"></path></g></g><style>text {
  font-size: 64px;
  font-family: Arial Black;
  dominant-baseline: central;
  text-anchor: middle;
}</style></svg>